<?xml version="1.0" encoding="UTF-8" standalone="no"?>
<svg
   xmlns:dc="http://purl.org/dc/elements/1.1/"
   xmlns:cc="http://creativecommons.org/ns#"
   xmlns:rdf="http://www.w3.org/1999/02/22-rdf-syntax-ns#"
   xmlns:svg="http://www.w3.org/2000/svg"
   xmlns="http://www.w3.org/2000/svg"
   version="1.1"
   id="svg20741"
   viewBox="0 0 170.07875 81.6625"
   height="81.662498"
   width="170.07875">
  <defs
     id="defs20743">
    <clipPath
       clipPathUnits="userSpaceOnUse"
       id="clipPath20777-2">
      <path
         d="m 229.606,533.538 136.063,0 0,65.33 -136.063,0 0,-65.33 z"
         id="path20779-6" />
    </clipPath>
  </defs>
  <metadata
     id="metadata20746">
    <rdf:RDF>
      <cc:Work
         rdf:about="">
        <dc:format>image/svg+xml</dc:format>
        <dc:type
           rdf:resource="http://purl.org/dc/dcmitype/StillImage" />
        <dc:title></dc:title>
      </cc:Work>
    </rdf:RDF>
  </metadata>
  <g
     transform="translate(-523.53205,-460.1024)"
     id="layer1">
    <g
       id="g20975">
      <g
         id="g20767"
         transform="matrix(1.25,0,0,-1.25,535.55956,460.71238)">
        <path
           d="m 0,0 0,-51.594 12.689,0 0,27.47 12.969,0 0,8.785 -12.969,0 0,5.438 17.988,0 0,10.04 L 0,0 Z"
           style="fill:#3b60ad;fill-opacity:1;fill-rule:nonzero;stroke:none"
           id="path20769" />
      </g>
      <path
         d="m 590.46581,524.85613 -12.55,0 0,-44.6225 12.55,0 0,44.6225 z"
         style="fill:#e01f28;fill-opacity:1;fill-rule:nonzero;stroke:none"
         id="path20771" />
      <g
         id="g20773"
         transform="matrix(1.25,0,0,-1.25,236.52455,1208.6874)">
        <g
           id="g20775"
           clip-path="url(#clipPath20777-2)">
          <g
             id="g20781"
             transform="translate(283.223,590.781)">
            <path
               d="m 0,0 c 0,-2.849 -2.31,-5.16 -5.16,-5.16 -2.849,0 -5.159,2.311 -5.159,5.16 0,2.849 2.31,5.16 5.159,5.16 C -2.31,5.16 0,2.849 0,0"
               style="fill:#e01f28;fill-opacity:1;fill-rule:evenodd;stroke:none"
               id="path20783" />
          </g>
          <g
             id="g20785"
             transform="translate(301.612,582.501)">
            <path
               d="m 0,0 c -2.789,-0.697 -6.903,-0.732 -6.903,-0.732 l 0.105,8.994 C 0.866,8.585 1.903,6.241 2.039,5.752 2.667,3.504 2.789,0.697 0,0 m 2.318,-7.408 c 0,0 7.949,3.068 8.367,9.343 0.418,6.275 -2.789,13.944 -12.689,13.944 l -13.387,0 0,-40.996 8.506,0 0,15.757 12.411,-16.455 7.53,5.299 -10.738,13.108 z"
               style="fill:#f8981c;fill-opacity:1;fill-rule:evenodd;stroke:none"
               id="path20787" />
          </g>
          <g
             id="g20789"
             transform="translate(312.924,554.943)">
            <path
               d="m 0,0 7.53,6.066 c 0,0 3.277,-5.926 7.112,-5.648 3.834,0.279 6.065,2.232 2.022,5.857 -4.044,3.626 -9.901,7.948 -11.226,9.413 -1.325,1.464 -5.369,6.693 -2.58,12.55 2.79,5.856 11.087,6.902 14.712,5.926 3.626,-0.976 9.97,-5.787 10.877,-7.739 l -7.042,-5.23 c 0,0 -2.58,3.556 -5.996,4.045 -3.417,0.488 -4.463,-1.395 -2.58,-3.068 C 14.711,20.498 27.122,11.574 27.958,7.669 28.795,3.765 30.399,-3.556 22.172,-7.251 13.944,-10.946 4.881,-9.064 0,0"
               style="fill:#3b60ad;fill-opacity:1;fill-rule:evenodd;stroke:none"
               id="path20791" />
          </g>
          <g
             id="g20793"
             transform="translate(365.669,598.868)">
            <path
               d="m 0,0 -29.074,0 0,-10.354 9.621,0 0,-41.729 9.936,0 0,41.729 9.517,0 L 0,0 Z"
               style="fill:#1dad4b;fill-opacity:1;fill-rule:evenodd;stroke:none"
               id="path20795" />
          </g>
          <g
             id="g20797"
             transform="translate(229.606,535.909)">
            <path
               d="m 0,0 c 0,0 32.63,4.741 60.38,4.183 27.749,-0.558 60.658,-2.649 74.045,-6.554 0,0 -38.487,11.853 -74.743,10.319 C 23.427,6.414 0,0 0,0"
               style="fill:#3b60ad;fill-opacity:1;fill-rule:evenodd;stroke:none"
               id="path20799" />
          </g>
          <g
             id="g20801"
             transform="translate(288.653,547.775)">
            <path
               d="m 0,0 -0.972,3.865 0,-4.188 c 0,-0.231 -0.052,-0.405 -0.156,-0.521 -0.103,-0.116 -0.24,-0.174 -0.411,-0.174 -0.166,0 -0.301,0.057 -0.406,0.172 -0.105,0.114 -0.157,0.289 -0.157,0.523 l 0,4.801 c 0,0.265 0.068,0.443 0.207,0.536 0.138,0.092 0.324,0.138 0.558,0.138 l 0.381,0 c 0.229,0 0.395,-0.02 0.499,-0.062 0.103,-0.041 0.18,-0.116 0.229,-0.223 0.05,-0.108 0.106,-0.283 0.17,-0.526 L 0.824,1.018 1.705,4.341 c 0.063,0.243 0.12,0.418 0.17,0.526 0.049,0.107 0.126,0.182 0.229,0.223 0.104,0.042 0.27,0.062 0.499,0.062 l 0.381,0 C 3.218,5.152 3.405,5.106 3.543,5.014 3.68,4.921 3.75,4.743 3.75,4.478 l 0,-4.801 C 3.75,-0.554 3.698,-0.728 3.594,-0.844 3.491,-0.96 3.352,-1.018 3.178,-1.018 c -0.162,0 -0.296,0.058 -0.401,0.174 -0.105,0.116 -0.157,0.29 -0.157,0.521 l 0,4.188 L 1.647,0 C 1.584,-0.251 1.532,-0.435 1.492,-0.553 1.452,-0.67 1.378,-0.777 1.27,-0.873 1.163,-0.97 1.014,-1.018 0.824,-1.018 0.68,-1.018 0.559,-0.987 0.459,-0.925 0.36,-0.863 0.283,-0.784 0.228,-0.687 0.172,-0.59 0.129,-0.484 0.097,-0.366 0.065,-0.249 0.033,-0.127 0,0"
               style="fill:#000000;fill-opacity:1;fill-rule:nonzero;stroke:none"
               id="path20803" />
          </g>
          <g
             id="g20805"
             transform="translate(297.663,551.98)">
            <path
               d="m 0,0 -2.769,0 0,-1.49 2.55,0 c 0.187,0 0.327,-0.042 0.42,-0.126 0.092,-0.084 0.138,-0.195 0.138,-0.333 0,-0.138 -0.045,-0.251 -0.136,-0.338 -0.091,-0.086 -0.232,-0.13 -0.422,-0.13 l -2.55,0 0,-1.726 2.864,0 c 0.193,0 0.339,-0.044 0.437,-0.134 0.098,-0.09 0.147,-0.209 0.147,-0.358 0,-0.144 -0.049,-0.26 -0.147,-0.35 -0.098,-0.09 -0.244,-0.134 -0.437,-0.134 l -3.34,0 c -0.267,0 -0.46,0.059 -0.577,0.178 -0.117,0.118 -0.176,0.31 -0.176,0.575 l 0,4.561 c 0,0.176 0.026,0.32 0.079,0.432 0.052,0.112 0.134,0.193 0.246,0.244 0.112,0.051 0.255,0.077 0.428,0.077 L 0,0.948 C 0.196,0.948 0.341,0.904 0.437,0.817 0.532,0.73 0.579,0.617 0.579,0.476 0.579,0.333 0.532,0.217 0.437,0.13 0.341,0.044 0.196,0 0,0"
               style="fill:#000000;fill-opacity:1;fill-rule:nonzero;stroke:none"
               id="path20807" />
          </g>
          <g
             id="g20809"
             transform="translate(300.555,551.955)">
            <path
               d="m 0,0 0,-4.118 0.931,0 c 0.204,0 0.364,0.006 0.48,0.017 0.116,0.011 0.236,0.038 0.36,0.083 0.124,0.044 0.232,0.106 0.323,0.186 0.411,0.347 0.617,0.946 0.617,1.796 0,0.598 -0.091,1.047 -0.271,1.345 C 2.259,-0.393 2.036,-0.204 1.771,-0.122 1.506,-0.041 1.186,0 0.811,0 L 0,0 Z m -0.476,0.972 1.602,0 C 1.542,0.972 1.899,0.934 2.198,0.857 2.496,0.779 2.766,0.634 3.009,0.422 3.64,-0.119 3.956,-0.941 3.956,-2.044 3.956,-2.409 3.925,-2.741 3.861,-3.042 3.798,-3.342 3.7,-3.614 3.567,-3.855 3.435,-4.096 3.265,-4.312 3.058,-4.503 2.896,-4.649 2.717,-4.766 2.524,-4.855 2.331,-4.943 2.123,-5.005 1.902,-5.041 1.679,-5.077 1.429,-5.094 1.15,-5.094 l -1.601,0 c -0.224,0 -0.392,0.033 -0.505,0.101 -0.113,0.067 -0.187,0.162 -0.221,0.285 -0.035,0.123 -0.052,0.282 -0.052,0.478 l 0,4.449 c 0,0.265 0.059,0.457 0.178,0.576 0.118,0.118 0.31,0.177 0.575,0.177"
               style="fill:#000000;fill-opacity:1;fill-rule:nonzero;stroke:none"
               id="path20811" />
          </g>
          <g
             id="g20813"
             transform="translate(305.642,547.506)">
            <path
               d="M 0,0 0,4.78 C 0,5.028 0.056,5.215 0.17,5.339 0.283,5.463 0.429,5.525 0.608,5.525 0.793,5.525 0.943,5.463 1.057,5.341 1.172,5.218 1.229,5.031 1.229,4.78 l 0,-4.78 c 0,-0.251 -0.057,-0.439 -0.172,-0.563 -0.114,-0.124 -0.264,-0.186 -0.449,-0.186 -0.176,0 -0.322,0.063 -0.436,0.188 C 0.057,-0.435 0,-0.248 0,0"
               style="fill:#000000;fill-opacity:1;fill-rule:nonzero;stroke:none"
               id="path20815" />
          </g>
          <g
             id="g20817"
             transform="translate(309.693,549.232)">
            <path
               d="M 0,0 1.813,0 0.898,2.504 0,0 Z m 2.433,-1.684 -0.289,0.761 -2.467,0 -0.29,-0.778 c -0.113,-0.303 -0.209,-0.508 -0.289,-0.614 -0.08,-0.107 -0.211,-0.16 -0.393,-0.16 -0.155,0 -0.292,0.057 -0.41,0.17 -0.119,0.113 -0.178,0.241 -0.178,0.385 0,0.083 0.014,0.168 0.041,0.257 0.028,0.088 0.073,0.211 0.137,0.368 l 1.552,3.94 c 0.044,0.113 0.097,0.248 0.159,0.407 0.062,0.159 0.128,0.291 0.199,0.395 0.07,0.105 0.163,0.19 0.277,0.255 0.115,0.065 0.256,0.097 0.424,0.097 0.171,0 0.314,-0.032 0.429,-0.097 C 1.449,3.637 1.542,3.554 1.612,3.451 1.682,3.35 1.742,3.24 1.79,3.123 1.838,3.005 1.899,2.849 1.974,2.653 l 1.585,-3.915 c 0.124,-0.298 0.186,-0.515 0.186,-0.65 0,-0.141 -0.058,-0.27 -0.176,-0.387 -0.117,-0.117 -0.258,-0.176 -0.424,-0.176 -0.096,0 -0.179,0.018 -0.248,0.052 -0.069,0.035 -0.127,0.081 -0.174,0.141 -0.047,0.059 -0.097,0.15 -0.151,0.273 -0.054,0.123 -0.1,0.231 -0.139,0.325"
               style="fill:#000000;fill-opacity:1;fill-rule:nonzero;stroke:none"
               id="path20819" />
          </g>
        </g>
      </g>
    </g>
  </g>
</svg>
